<?xml version="1.0" encoding="UTF-8"?>
<!DOCTYPE svg PUBLIC "-//W3C//DTD SVG 1.1//EN" "http://www.w3.org/Graphics/SVG/1.1/DTD/svg11.dtd">
<!-- Creator: CorelDRAW X8 -->
<svg xmlns="http://www.w3.org/2000/svg" xml:space="preserve" width="180.551mm" height="83.4451mm" version="1.1" style="shape-rendering:geometricPrecision; text-rendering:geometricPrecision; image-rendering:optimizeQuality; fill-rule:evenodd; clip-rule:evenodd"
viewBox="0 0 18055 8345"
 xmlns:xlink="http://www.w3.org/1999/xlink">
 <defs>
  <style type="text/css">
   <![CDATA[
    .fil0 {fill:#282829}
    .fil3 {fill:#3B3B3B}
    .fil5 {fill:#F4F5F6;fill-rule:nonzero}
    .fil6 {fill:#EEC365;fill-rule:nonzero}
    .fil1 {fill:#282829;fill-rule:nonzero}
    .fil4 {fill:#EEC365;fill-rule:nonzero}
    .fil2 {fill:url(#id0);fill-rule:nonzero}
   ]]>
  </style>
  <linearGradient id="id0" gradientUnits="userSpaceOnUse" x1="6162.25" y1="4668.18" x2="11892.8" y2="4668.18">
   <stop offset="0" style="stop-opacity:1; stop-color:#B4733A"/>
   <stop offset="0.25098" style="stop-opacity:1; stop-color:#D2943A"/>
   <stop offset="0.490196" style="stop-opacity:1; stop-color:#FAE783"/>
   <stop offset="0.768627" style="stop-opacity:1; stop-color:#B6873C"/>
   <stop offset="1" style="stop-opacity:1; stop-color:#9F6838"/>
  </linearGradient>
 </defs>
 <g id="Camada_x0020_1">
  <metadata id="CorelCorpID_0Corel-Layer"/>
  <g id="_1568707971696">
   <g>
    <path class="fil0" d="M6657 7303c-252,58 -323,-174 -83,-192 160,-12 281,145 83,192z"/>
    <path class="fil1" d="M6284 7409c-74,2 140,-14 173,-24 108,9 -115,22 -173,24z"/>
    <path class="fil0" d="M6703 7700c-110,10 240,-130 146,-128 -227,4 -844,137 -848,138 418,-103 873,-263 1004,-322 18,-9 40,-15 62,-18l279 206c-198,70 -429,106 -643,124z"/>
    <path class="fil0" d="M6039 7327c-184,-37 -760,-45 -772,-77 437,-35 1125,-133 1322,-223 5,0 10,1 15,1l296 219c-268,130 -581,169 -804,176 -48,1 -92,1 -130,0 0,0 230,-64 73,-96z"/>
    <path class="fil0" d="M6055 6943c-151,42 -318,46 -430,42 -152,-7 99,-86 0,-109 -203,-46 -653,13 -856,-49 274,-37 934,-46 1239,-147 31,-10 71,-14 114,-14 21,20 43,38 66,56l142 104c-167,82 -275,117 -275,117z"/>
    <path class="fil0" d="M5063 6619c-115,-8 319,-83 208,-103 -182,-33 -1021,-149 -1169,-216 337,0 1290,-73 1560,-133 60,-6 123,13 215,45 12,75 35,147 68,215 -271,96 -621,210 -882,192z"/>
    <path class="fil0" d="M4764 6097c-118,13 -379,33 -464,20 -120,-18 136,-56 51,-89 -171,-64 -748,-211 -904,-347 411,79 1262,-13 1617,-38 145,0 404,157 794,235 -312,100 -1094,219 -1094,219z"/>
    <path class="fil0" d="M5867 6117c-41,-15 -71,-33 -90,-56 30,7 60,12 89,17l0 6c0,11 0,22 1,33z"/>
    <path class="fil0" d="M3509 5424c-113,-35 153,-20 40,-72 -237,-109 -904,-345 -965,-491 574,180 1329,233 1871,119 164,-34 193,285 1023,397 -486,95 -1390,170 -1757,100 -65,-13 -137,-31 -212,-53z"/>
    <path class="fil0" d="M5866 5771c-170,-32 -455,-65 -547,-202 111,42 319,58 547,60l0 142z"/>
    <path class="fil0" d="M5582 5276c-322,-29 -607,-143 -702,-280 195,89 606,129 986,144l0 283c-55,-6 -115,-13 -179,-20 0,0 98,-45 -105,-127z"/>
    <path class="fil0" d="M2801 4644c-97,-37 129,-14 23,-77 -183,-108 -701,-331 -848,-541 0,0 1004,363 1945,241 190,-25 391,404 1143,577 -354,54 -1403,-32 -1832,-86 0,0 -187,-21 -431,-114z"/>
    <path class="fil0" d="M5866 3119c-571,-282 -462,-461 -564,-615 212,61 399,117 564,168l0 447z"/>
    <path class="fil0" d="M5247 4715c-471,-70 -739,-179 -878,-393 348,50 937,127 1497,187l0 398c-186,-5 -374,-17 -609,-46 0,0 202,-48 -10,-146z"/>
    <path class="fil0" d="M2159 3717c-109,-53 184,-47 57,-132 -196,-130 -821,-375 -1041,-602 673,291 1838,391 2459,446 188,13 172,409 1095,759 -659,-75 -1372,-172 -1922,-272 0,0 -250,-48 -648,-199z"/>
    <path class="fil0" d="M4880 4047c-459,-160 -866,-320 -950,-606 78,133 1213,383 1936,534l0 419c-324,-45 -587,-114 -1037,-198 0,0 243,-81 51,-149z"/>
    <path class="fil0" d="M1513 2692c-120,-88 388,77 282,-22 -431,-404 -1346,-1099 -1346,-1099 0,0 1388,646 2627,947 192,46 251,489 1181,857 -162,-20 -1484,-279 -1878,-344 -306,-33 -594,-138 -866,-339z"/>
    <path class="fil0" d="M4489 3292c-312,-97 -883,-330 -1162,-728 430,197 1831,516 2539,709l0 512c-410,-88 -892,-217 -1480,-379 0,0 240,-67 103,-114z"/>
    <path class="fil0" d="M4107 2518c-875,-319 -1210,-761 -1229,-947 516,321 1839,785 2293,902 59,16 39,342 506,608 -562,-92 -959,-232 -1691,-491 -117,-42 238,5 121,-72z"/>
    <path class="fil0" d="M2113 2076c-561,-231 -983,-505 -1299,-792 -61,-55 302,104 248,48 -363,-383 -971,-994 -1062,-1332l0 0c516,627 1309,1133 2741,1521 -175,227 601,805 1018,999 -28,42 -1646,-444 -1646,-444z"/>
    <path class="fil0" d="M11352 7700c110,10 -240,-130 -146,-128 227,4 844,137 848,138 -418,-103 -873,-263 -1003,-322 -19,-9 -40,-15 -63,-18l-279 206c198,70 429,106 643,124z"/>
    <path class="fil0" d="M12016 7327c184,-37 760,-45 772,-77 -437,-35 -1125,-133 -1322,-223 -5,0 -10,1 -14,1l-297 219c268,130 581,169 804,176 48,1 92,1 130,0 0,0 -230,-64 -73,-96z"/>
    <path class="fil0" d="M12000 6943c151,42 318,46 430,42 152,-7 -99,-86 0,-109 203,-46 653,13 856,-49 -274,-37 -934,-46 -1239,-147 -31,-10 -71,-14 -113,-14 -22,20 -44,38 -67,56l-142 104c167,82 275,117 275,117z"/>
    <path class="fil0" d="M12992 6619c115,-8 -319,-83 -207,-103 181,-33 1020,-149 1169,-216 -338,0 -1291,-73 -1561,-133 -60,-6 -123,13 -215,45 -12,75 -35,147 -68,215 271,96 621,210 882,192z"/>
    <path class="fil0" d="M13291 6097c118,13 379,33 464,20 120,-18 -136,-56 -51,-89 171,-64 748,-211 904,-347 -410,79 -1262,-13 -1617,-38 -144,0 -404,157 -794,235 312,100 1094,219 1094,219z"/>
    <path class="fil0" d="M12188 6117c41,-15 72,-33 90,-56 -30,7 -59,12 -89,17l0 6c0,11 0,22 -1,33z"/>
    <path class="fil0" d="M14546 5424c113,-35 -153,-20 -40,-72 237,-109 904,-345 965,-491 -574,180 -1329,233 -1871,119 -163,-34 -193,285 -1023,397 486,95 1390,170 1757,100 65,-13 137,-31 212,-53z"/>
    <path class="fil0" d="M12189 5771c170,-32 455,-65 547,-202 -111,42 -319,58 -547,60l0 142z"/>
    <path class="fil0" d="M12473 5276c322,-29 607,-143 702,-280 -195,89 -606,129 -986,144l0 283c56,-6 115,-13 179,-20 0,0 -98,-45 105,-127z"/>
    <path class="fil0" d="M15254 4644c97,-37 -129,-14 -22,-77 182,-108 700,-331 847,-541 0,0 -1004,363 -1945,241 -190,-25 -391,404 -1143,577 354,54 1404,-32 1832,-86 0,0 187,-21 431,-114z"/>
    <path class="fil0" d="M12189 3119c571,-282 462,-461 564,-615 -212,61 -399,117 -564,168l0 447z"/>
    <path class="fil0" d="M12808 4715c471,-70 739,-179 878,-393 -348,50 -937,127 -1497,187l0 398c186,-5 375,-17 609,-46 0,0 -202,-48 10,-146z"/>
    <path class="fil0" d="M15896 3717c109,-53 -184,-47 -57,-132 196,-130 821,-375 1041,-602 -673,291 -1838,391 -2459,446 -188,13 -172,409 -1095,759 659,-75 1372,-172 1922,-272 0,0 250,-48 648,-199z"/>
    <path class="fil0" d="M13175 4047c459,-160 866,-320 950,-606 -78,133 -1213,383 -1936,534l0 419c324,-45 587,-114 1037,-198 0,0 -243,-81 -51,-149z"/>
    <path class="fil0" d="M16542 2692c120,-88 -387,77 -282,-22 432,-404 1346,-1099 1346,-1099 0,0 -1388,646 -2627,947 -192,46 -251,489 -1181,857 162,-20 1484,-279 1878,-344 306,-33 595,-138 866,-339z"/>
    <path class="fil0" d="M13566 3292c312,-97 883,-330 1162,-728 -430,197 -1831,516 -2539,709l0 512c410,-88 892,-217 1480,-379 0,0 -240,-67 -103,-114z"/>
    <path class="fil0" d="M13948 2518c875,-319 1210,-761 1229,-947 -516,321 -1839,785 -2293,902 -59,16 -39,342 -505,608 561,-92 958,-232 1690,-491 117,-42 -238,5 -121,-72z"/>
    <path class="fil0" d="M15942 2076c561,-231 983,-505 1299,-792 61,-55 -302,104 -248,48 363,-383 972,-994 1062,-1332l0 0c-516,627 -1309,1133 -2740,1521 174,227 -602,805 -1019,999 28,42 1646,-444 1646,-444z"/>
    <g>
     <path class="fil0" d="M10964 8225l620 66c-248,-79 -776,-216 -931,-293 -101,-50 -378,-61 -491,-19l-47 34c-7,17 3,38 35,63 182,139 444,254 876,247l-62 -98z"/>
     <path class="fil0" d="M7084 8225l-620 66c248,-79 776,-216 931,-293 106,-53 408,-62 508,-12l25 18c15,19 8,42 -30,72 -182,139 -444,254 -876,247l62 -98z"/>
    </g>
   </g>
   <path class="fil2" d="M11507 6312c-1050,775 -1282,946 -2271,1675 -125,92 -292,92 -417,0 -994,-733 -1218,-898 -2271,-1675 -90,-66 -143,-171 -143,-282l0 -3215c0,-104 84,-188 188,-188l4869 0c104,0 188,84 188,188l0 3215c0,111 -53,216 -143,282zm171 232c163,-120 260,-312 260,-514l0 -3391c0,-352 -287,-639 -639,-639l-2002 0c-1,-5 -2,-9 -4,-15 -18,-74 -24,-181 -8,-290 4,-27 11,-54 17,-81 8,-27 16,-53 23,-78 10,-25 20,-49 29,-72 9,-23 21,-43 31,-63 19,-40 40,-70 54,-92 14,-22 22,-35 22,-35 0,0 -12,9 -32,26 -20,17 -51,39 -82,72 -16,16 -36,32 -53,53 -17,20 -35,41 -54,63 -17,25 -35,49 -53,75 -16,26 -33,54 -48,82 -11,25 -24,49 -34,74 -5,-18 -10,-37 -16,-56 -22,-68 -50,-140 -82,-208 -33,-69 -68,-135 -109,-193 -19,-29 -38,-57 -59,-81 -20,-25 -38,-48 -58,-68 -19,-19 -36,-37 -51,-53 -17,-14 -32,-27 -44,-37 -24,-20 -37,-31 -37,-31 0,0 8,15 23,43 8,13 17,29 27,48 9,19 18,41 28,65 11,23 19,51 28,79 10,27 18,57 24,88 16,61 24,128 30,194 5,66 4,132 1,194 -4,61 -10,118 -18,165 -8,48 -16,87 -23,112 -1,6 -3,11 -4,15 -3,-6 -7,-12 -11,-19 -23,-43 -50,-106 -61,-175 -6,-34 -8,-69 -6,-103 0,-17 2,-33 5,-49 2,-16 5,-31 9,-44 6,-28 15,-50 22,-66 7,-16 10,-25 10,-25 0,0 -7,6 -21,17 -13,11 -33,27 -53,50 -11,11 -22,24 -33,39 -11,14 -22,30 -32,47 -21,35 -40,75 -54,117 -27,73 -37,151 -40,216l-1744 0c-352,0 -639,287 -639,639l0 3391c0,202 97,394 260,514 938,692 1335,984 2272,1675 113,84 246,126 378,126 133,0 266,-42 380,-126 942,-695 1326,-978 2271,-1675z"/>
   <path class="fil3" d="M9028 2627l0 5429c-73,0 -146,-23 -209,-69 -994,-733 -1218,-898 -2271,-1675 -90,-66 -143,-171 -143,-282l0 -3215c0,-104 84,-188 188,-188l2435 0z"/>
   <path class="fil0" d="M9028 2627l0 5429c72,0 145,-23 208,-69 989,-729 1221,-900 2271,-1675 90,-66 143,-171 143,-282l0 -3215c0,-104 -84,-188 -188,-188l-2328 0 -106 0z"/>
   <path class="fil4" d="M6554 4541l265 427c1,1 1,5 2,10 0,6 0,10 -1,13l-5 51 257 -160 -48 -17c-3,-1 -7,-3 -12,-6 -4,-3 -7,-5 -8,-6l-265 -427c0,-2 1,-7 1,-14 1,-7 2,-14 2,-22 0,-7 1,-15 1,-22 0,-6 0,-11 0,-14l0 -2c0,-4 0,-7 -2,-10l-264 164c2,3 5,5 9,6l1 1c2,1 7,4 13,7 6,2 13,5 20,8 7,3 14,6 20,8 7,3 11,4 14,5zm1029 -653c13,-3 31,-4 53,6 0,0 138,75 303,283 22,21 27,52 18,79 -133,-170 -331,-334 -374,-368zm671 -43c3,6 1,13 -5,16 -6,2 -12,0 -15,-5 -3,-6 -1,-13 5,-16 5,-2 12,0 15,5zm-219 658c2,5 0,12 -5,15 -6,3 -13,0 -15,-5 -3,-6 -1,-13 4,-15 6,-3 13,-1 16,5zm279 -685c-19,-38 -66,-54 -104,-34 -22,11 -36,30 -41,53l0 0 0 1 -1 6c-7,48 -54,332 -142,544l-87 -104 2 -2c3,-4 7,-8 9,-13l0 1c-140,-182 -358,-358 -381,-376 -8,4 -12,9 -12,9 -28,29 -27,76 2,105l278 276 51 48 114 111 -2 4 -32 63c-4,12 -3,26 3,38 13,26 44,36 69,23 19,-9 31,-34 40,-54 20,23 38,47 38,68 1,18 -8,36 -25,54 -7,8 -7,21 1,29 8,8 21,8 29,-1 25,-25 37,-54 36,-84 -1,-41 -28,-71 -37,-80l-22 -27c64,-129 195,-414 221,-612l1 -3 0 0 0 0c1,-15 -1,-29 -8,-43zm-1382 490l180 470c0,1 0,4 -1,10 0,6 -1,10 -2,12l-15 49 241 -92 -124 -324 363 232 126 -48 -62 -41 -180 -469c6,-19 10,-36 13,-50 2,-14 4,-25 5,-33l-245 94 81 211 -240 -150 -209 80c5,4 10,9 17,14 7,6 13,11 20,16 7,5 14,9 19,12 6,4 10,6 13,7zm1516 -392l43 500c1,2 0,5 -3,10 -2,5 -4,9 -5,11l-29 43 302 -26 -35 -37c-2,-2 -4,-6 -8,-10 -3,-5 -4,-8 -4,-10l-44 -500c2,-2 4,-6 8,-12 3,-6 7,-12 11,-19 4,-6 8,-13 11,-19 3,-6 5,-10 6,-13l1 -1c2,-4 3,-7 3,-10l-309 27c0,3 2,6 4,9l1 1c2,3 4,7 9,12 4,5 9,11 14,17 5,6 9,11 14,16 5,5 8,9 10,11zm873 173c2,-9 6,-26 10,-49 5,-23 10,-48 15,-74 4,-26 9,-51 13,-74 4,-24 7,-41 8,-51 0,-1 -1,-4 -4,-8 -3,-5 -6,-8 -10,-12l-18 -2 -425 -5c-3,0 -9,7 -16,19 -8,12 -16,27 -25,45 -9,18 -18,38 -27,60 -10,22 -18,44 -26,66 -7,21 -14,41 -19,59 -5,18 -7,31 -7,41l-1 16c0,6 1,11 2,16 0,5 4,11 10,18 8,12 21,29 37,51 16,22 33,45 50,68 17,23 33,43 46,61 14,18 23,29 26,33 7,8 15,16 25,26 10,9 20,18 32,26 11,8 23,15 36,21 12,6 25,9 36,9l241 3 2 -120 -77 59 -57 -1c-44,-45 -83,-90 -118,-136 -35,-46 -67,-95 -95,-148 8,-36 19,-73 33,-110 14,-37 31,-77 52,-120l13 -1 98 1c15,15 27,28 34,38l97 169 9 6zm196 379l36 -36c2,-2 5,-5 8,-10 4,-5 6,-8 6,-9l58 -515 -116 -13 -58 33 11 -93 537 60 -11 93 -49 -45 -99 -11 -59 523c1,6 3,11 5,13l28 44 -297 -34zm813 92l142 -566 257 64c-11,10 -23,19 -34,28 -12,9 -24,18 -36,27l-117 469c0,1 0,4 2,10 2,6 3,9 3,12l30 59c1,1 1,3 1,5 1,3 1,4 0,6l-465 -117c-6,-1 -14,-5 -24,-12 -10,-6 -19,-15 -27,-27 -9,-12 -15,-27 -18,-45 -4,-18 -3,-39 3,-64l106 -423 -40 -82 256 64 -122 489c-1,22 0,38 5,50 4,11 8,20 14,25 5,6 10,9 14,11 5,2 7,4 6,6l44 11zm418 -238l82 -215 142 54 -45 116 -130 63 -49 -18zm206 258l5 10 -2 192 5 8c0,0 2,1 7,2 4,2 10,4 17,6 7,2 14,4 21,5 7,2 13,3 18,3 42,10 71,2 86,-25 9,-15 12,-33 9,-53 -4,-8 -9,-21 -16,-38 -7,-17 -14,-37 -22,-59 -9,-22 -17,-45 -26,-69 -9,-25 -18,-48 -27,-70 -8,-22 -16,-42 -23,-59 -7,-18 -13,-31 -17,-39 -1,-6 0,-13 4,-21l4 -6c7,-11 21,-18 43,-21 22,-2 44,-2 68,1 35,3 72,8 111,13 39,6 78,11 116,17 39,6 76,13 111,19 36,7 68,14 96,21l36 13 -4 13 -166 213 -6 -9 -35 -196c-1,-3 -1,-5 -1,-6 1,-1 0,-3 -3,-4l-9 -5c-30,-9 -54,-12 -73,-8 -20,4 -33,14 -42,29l-5 10c-2,3 -3,6 -4,9 -1,4 -1,8 1,14l144 367c2,8 3,14 1,19 -3,6 -5,11 -7,16 -8,14 -21,21 -39,21 -17,0 -38,-2 -63,-6 -80,-13 -158,-27 -234,-42 -76,-16 -152,-35 -230,-57l-19 -11c1,-1 3,-5 7,-9 3,-5 6,-8 7,-9 6,-9 16,-22 30,-41 15,-20 30,-40 46,-61 16,-20 32,-40 47,-58 15,-19 26,-32 33,-39z"/>
   <g>
    <path class="fil5" d="M7304 5657c0,-1 3,-3 9,-6 6,-3 12,-10 18,-21 6,-11 9,-28 9,-49l0 -363c0,-19 -3,-33 -9,-43 -6,-10 -12,-17 -18,-20 -6,-3 -9,-5 -9,-6l1 -5c0,-2 1,-4 4,-4l189 0c138,0 207,38 207,114l0 1c0,49 -28,83 -84,102 45,9 81,26 108,52 27,25 40,57 40,94l0 3c0,49 -24,88 -72,117 -48,29 -108,44 -182,44l-206 -1c-3,0 -5,-1 -5,-4l0 -5zm170 -244l0 183c0,5 1,8 5,12 3,3 7,5 12,5l3 0c46,0 82,-10 106,-30 24,-20 36,-45 36,-77l0 -2c0,-33 -12,-59 -37,-79 -25,-19 -61,-29 -108,-29 -12,0 -17,6 -17,17zm0 -86c0,5 3,8 9,8 27,-2 50,-9 70,-21 20,-12 30,-29 30,-52l0 -1c0,-43 -34,-65 -100,-67 -6,0 -9,3 -9,9l0 124zm708 307c1,0 2,2 2,5 -2,8 -10,15 -22,21 -13,6 -27,9 -42,9 -23,0 -43,-8 -60,-25 -18,-16 -26,-39 -26,-69l0 -119c-3,2 -7,6 -15,12 -40,30 -60,61 -60,93 0,30 11,49 34,56 1,0 2,1 4,1 1,0 3,1 4,1 3,0 8,-1 16,-3l2 0c3,0 5,1 7,3 2,2 3,4 1,7 -6,15 -19,26 -38,35 -19,8 -37,13 -54,13 -32,-2 -60,-12 -83,-31 -22,-19 -33,-44 -31,-75 1,-28 11,-50 30,-66 19,-17 48,-33 90,-51 3,-1 8,-3 15,-6 50,-21 75,-43 78,-69 1,-13 -2,-23 -9,-31 -7,-7 -16,-10 -28,-10 -13,0 -23,4 -29,13 -6,6 -9,13 -9,21 1,15 7,23 19,25 2,0 3,2 3,5 -2,9 -9,18 -21,27 -11,9 -26,13 -43,13 -24,0 -42,-7 -54,-21 -10,-12 -15,-25 -13,-40 1,-21 11,-38 28,-53 18,-15 37,-24 58,-30 21,-5 42,-8 64,-8 59,0 104,16 134,46 23,25 34,59 33,101 0,6 -1,14 -1,25 0,10 0,18 -1,24 -4,95 1,146 17,151zm47 -293l0 -12c0,-5 2,-8 7,-8 15,0 30,-1 45,-4 16,-2 28,-5 37,-8 9,-2 19,-6 32,-11 12,-5 20,-8 23,-8 2,-1 5,-1 9,-1 2,0 4,0 6,1 2,0 3,2 4,4 1,1 2,3 3,5 1,2 1,5 1,8 0,3 0,5 0,7 0,2 0,4 0,8 0,3 0,5 0,6l0 4c23,-27 53,-41 89,-43 81,0 122,35 122,105 1,8 0,17 -4,28 -3,10 -11,20 -24,32 -13,11 -29,16 -49,16 -19,0 -35,-5 -48,-15 -13,-10 -21,-21 -23,-32 0,-2 1,-4 3,-4 13,-2 20,-11 22,-27 1,-11 -1,-20 -8,-27 -5,-7 -12,-10 -21,-10 -17,0 -30,9 -41,27 -10,19 -16,37 -18,56l0 143c0,17 2,31 6,41 4,11 8,18 12,22 5,3 9,6 13,8 3,2 5,4 5,6l0 4c0,3 -1,5 -4,5l-194 0c-3,0 -4,-1 -4,-4l-1 -5c0,-2 3,-4 9,-6 6,-3 12,-9 18,-19 6,-11 9,-25 9,-44l0 -210c0,-11 -3,-19 -9,-25 -6,-5 -14,-8 -22,-8 -3,0 -5,-2 -5,-5zm636 -52c34,-1 63,5 88,18 25,12 43,29 55,50 13,21 22,42 27,63 5,22 8,43 8,64 -2,51 -18,95 -48,132 -30,38 -73,56 -129,56 -32,0 -63,-12 -93,-37 -17,21 -39,32 -66,32 -14,0 -28,-4 -43,-10 -14,-7 -22,-15 -23,-23 0,-2 1,-4 2,-4 8,-2 14,-11 17,-28 3,-18 5,-49 6,-93l0 -288c0,-11 -3,-19 -9,-25 -6,-6 -14,-8 -23,-8 -3,0 -4,-2 -4,-5l0 -12c0,-6 2,-8 6,-8 15,0 31,-1 46,-4 15,-3 27,-5 36,-8 9,-3 20,-6 32,-11 13,-5 20,-8 23,-9 3,0 6,-1 9,-1 3,0 5,1 6,1 2,1 4,2 5,4 1,2 2,4 3,6 1,2 1,4 1,7 0,3 0,6 0,8 0,1 0,4 0,7 0,4 0,6 0,7l0 140c24,-14 47,-21 68,-21zm15 289c12,-26 18,-59 19,-98 1,-38 -4,-71 -15,-97 -10,-26 -23,-40 -39,-41 -15,0 -26,13 -35,39 -8,25 -12,58 -13,98 -2,92 11,137 41,137 16,1 30,-12 42,-38zm254 -234c35,-37 80,-55 134,-55 55,0 99,17 132,51 33,35 50,79 50,134 0,4 -3,6 -10,6l-5 0 -205 2 0 2c3,34 13,60 29,78 16,19 35,28 58,27 35,-2 59,-19 70,-52 5,-15 14,-23 29,-23 3,0 6,1 8,1 15,3 22,13 19,31 -4,38 -23,69 -56,92 -33,24 -69,36 -109,36 -59,0 -106,-18 -142,-53 -36,-34 -54,-81 -54,-141 0,-54 17,-100 52,-136zm140 -8c-11,0 -21,9 -30,28 -8,19 -14,43 -15,72l90 0c1,-30 -4,-54 -13,-73 -9,-18 -19,-27 -32,-27zm594 298c1,0 2,2 2,5 -2,8 -10,15 -23,21 -12,6 -26,9 -41,9 -23,0 -44,-8 -61,-25 -17,-16 -26,-39 -26,-69l0 -119c-2,2 -7,6 -14,12 -41,30 -61,61 -61,93 0,30 12,49 35,56 1,0 2,1 3,1 2,0 3,1 5,1 3,0 8,-1 16,-3l2 0c3,0 5,1 7,3 2,2 2,4 1,7 -6,15 -19,26 -38,35 -19,8 -37,13 -54,13 -33,-2 -60,-12 -83,-31 -23,-19 -33,-44 -32,-75 2,-28 12,-50 30,-66 19,-17 49,-33 90,-51 3,-1 8,-3 16,-6 49,-21 75,-43 77,-69 2,-13 -1,-23 -9,-31 -6,-7 -16,-10 -28,-10 -12,0 -22,4 -29,13 -6,6 -9,13 -9,21 2,15 8,23 19,25 3,0 4,2 4,5 -3,9 -9,18 -21,27 -12,9 -26,13 -43,13 -24,0 -42,-7 -54,-21 -11,-12 -15,-25 -14,-40 2,-21 11,-38 29,-53 18,-15 37,-24 58,-30 21,-5 42,-8 64,-8 59,0 103,16 133,46 23,25 35,59 34,101 -1,6 -1,14 -1,25 0,10 -1,18 -1,24 -5,95 1,146 17,151zm47 25c0,-2 2,-3 5,-6 4,-2 8,-5 13,-8 4,-3 8,-9 12,-19 4,-9 6,-22 6,-37l0 -210c0,-11 -3,-19 -9,-25 -6,-5 -14,-8 -23,-8 -3,0 -4,-2 -4,-5l0 -12c0,-5 2,-8 6,-8 21,0 39,-2 55,-5 17,-3 35,-9 54,-16 20,-8 30,-11 31,-11 2,-1 5,-2 9,-2 6,0 10,3 12,8 7,-21 14,-42 23,-60 9,-19 19,-38 32,-58 14,-19 29,-35 48,-46 19,-12 39,-18 61,-18 21,0 39,6 54,18 16,11 25,28 29,50 4,19 0,39 -11,61 -11,22 -32,36 -64,41 -3,1 -6,1 -12,1 -21,0 -36,-3 -47,-10 -2,-2 -2,-4 -1,-6 3,-6 5,-10 5,-12 0,-7 -4,-11 -13,-11 -18,2 -40,30 -65,82 -24,53 -37,113 -37,179l0 75c0,22 3,39 10,50 6,11 12,18 18,22 6,3 9,5 9,6l0 4c0,3 -1,5 -4,5l-198 0c-2,0 -3,-1 -3,-3l-1 -6zm243 -323c0,-6 2,-8 7,-8 63,0 108,-10 135,-29 6,-3 10,-5 13,-5 2,0 4,1 6,2 2,1 4,2 5,4 1,2 2,4 3,6 0,2 1,4 1,7 0,3 0,6 0,8 0,1 0,4 0,7 0,4 0,6 0,7l0 246c0,17 2,31 5,42 4,11 8,19 13,22 5,3 9,6 13,8 4,3 6,4 6,6l0 4c0,3 -2,5 -5,5l-197 0c-3,0 -4,-1 -4,-3l-1 -6c0,-2 3,-4 10,-6 6,-3 12,-9 18,-20 6,-10 9,-25 9,-44l0 -203c0,-11 -3,-19 -9,-25 -7,-6 -14,-8 -23,-8 -3,0 -5,-2 -5,-5l0 -12zm591 298c1,0 2,2 2,5 -2,8 -10,15 -23,21 -12,6 -26,9 -41,9 -23,0 -44,-8 -61,-25 -17,-16 -26,-39 -26,-69l0 -119c-2,2 -7,6 -14,12 -41,30 -61,61 -61,93 0,30 12,49 35,56 1,0 2,1 3,1 2,0 3,1 5,1 3,0 8,-1 16,-3l2 0c3,0 5,1 7,3 2,2 2,4 1,7 -6,15 -19,26 -38,35 -19,8 -37,13 -54,13 -33,-2 -60,-12 -83,-31 -23,-19 -33,-44 -32,-75 2,-28 12,-50 30,-66 19,-17 49,-33 90,-51 3,-1 8,-3 16,-6 49,-21 75,-43 77,-69 2,-13 -1,-23 -9,-31 -6,-7 -16,-10 -28,-10 -12,0 -22,4 -29,13 -6,6 -9,13 -9,21 2,15 8,23 19,25 3,0 4,2 4,5 -3,9 -9,18 -21,27 -12,9 -26,13 -43,13 -24,0 -42,-7 -54,-21 -11,-12 -15,-25 -14,-40 2,-21 11,-38 29,-53 18,-15 37,-24 58,-30 21,-5 42,-8 64,-8 59,0 103,16 133,46 23,25 35,59 34,101 -1,6 -1,14 -1,25 0,10 -1,18 -1,24 -5,95 1,146 17,151z"/>
    <g>
     <polygon class="fil6" points="11183,5491 10851,5496 10851,5459 11183,5453 "/>
     <polygon class="fil6" points="7204,5491 6872,5496 6872,5459 7204,5453 "/>
    </g>
   </g>
  </g>
 </g>
</svg>
