<?xml version="1.0" standalone="no"?>
<!DOCTYPE svg PUBLIC "-//W3C//DTD SVG 20010904//EN"
 "http://www.w3.org/TR/2001/REC-SVG-20010904/DTD/svg10.dtd">
<svg version="1.0" xmlns="http://www.w3.org/2000/svg"
 width="1262.000000pt" height="634.000000pt" viewBox="0 0 1262.000000 634.000000"
 preserveAspectRatio="xMidYMid meet">

<g transform="translate(0.000000,634.000000) scale(0.100000,-0.100000)"
fill="#000000" stroke="none">
<path d="M7720 5000 l0 -60 83 0 c277 -1 496 -174 552 -436 22 -103 22 -2425
0 -2528 -20 -94 -62 -180 -120 -244 -39 -43 -410 -331 -495 -384 -17 -11 -20
-23 -20 -85 0 -40 2 -73 5 -73 15 0 547 399 584 438 67 71 118 156 149 246
l27 81 0 1285 0 1285 -27 81 c-95 280 -343 454 -647 454 l-91 0 0 -60z"/>
<path d="M4343 4941 c-116 -82 -210 -207 -256 -341 l-22 -65 -3 -1265 c-3
-1405 -6 -1340 63 -1478 49 -97 112 -172 204 -241 44 -34 82 -61 85 -61 3 0 6
33 6 73 l0 72 -41 29 c-83 59 -163 188 -188 304 -15 74 -16 2469 0 2544 21
101 75 196 156 275 l74 73 -3 66 -3 65 -72 -50z"/>
<path d="M7530 4572 l0 -199 -427 -6 c-546 -9 -1237 -9 -1906 0 l-527 6 0 194
0 194 -22 -6 c-94 -29 -205 -121 -249 -207 -50 -98 -49 -69 -49 -1318 0 -732
4 -1181 10 -1208 26 -109 85 -187 219 -289 l86 -65 3 111 3 110 222 -163 c122
-89 451 -330 731 -535 280 -206 524 -382 542 -393 45 -26 128 -34 180 -16 22
8 252 169 510 358 258 189 514 376 569 416 l100 73 3 -109 3 -109 236 172
c130 95 262 196 294 225 68 63 114 147 129 237 14 83 13 2289 0 2375 -22 137
-102 245 -228 307 l-76 38 -178 3 -178 4 0 -200z m-1730 -992 c20 -38 -37
-234 -110 -380 l-28 -55 21 -36 c22 -38 18 -85 -9 -96 -22 -8 -25 0 -12 35 17
44 -2 64 -32 37 -16 -15 -25 -17 -38 -8 -17 11 -19 31 -7 69 5 16 -20 45 -144
163 -126 119 -151 148 -151 172 0 32 29 54 60 44 32 -10 126 -92 175 -152 37
-45 45 -61 40 -83 -4 -18 1 -34 15 -53 12 -15 25 -27 29 -27 11 0 58 156 81
268 10 51 24 100 31 108 18 21 66 18 79 -6z m696 -13 c5 -5 -23 -158 -30 -164
-2 -3 -17 17 -32 44 -42 73 -63 93 -100 93 -30 0 -33 -4 -58 -65 -14 -36 -26
-73 -26 -83 0 -10 18 -45 41 -78 79 -114 108 -132 157 -98 21 15 22 14 22 -20
l0 -36 -92 0 c-110 0 -117 4 -204 120 -52 70 -55 78 -51 120 2 25 18 76 36
114 l31 69 151 -6 c84 -4 153 -8 155 -10z m-448 -22 c-18 -33 6 -341 28 -366
8 -8 14 -18 14 -21 0 -8 -180 -22 -187 -14 -3 3 -1 12 5 19 17 20 -13 330 -34
363 -19 28 -14 32 61 37 132 9 127 10 113 -18z m657 10 c229 -26 212 -21 207
-56 -4 -28 -6 -29 -21 -14 -18 15 -81 21 -81 8 0 -5 -9 -82 -20 -172 -15 -122
-17 -168 -8 -178 6 -7 9 -15 7 -17 -2 -2 -46 2 -97 8 -91 11 -92 11 -78 32 9
12 22 76 31 155 8 74 18 148 21 166 4 30 3 32 -32 39 -23 4 -44 2 -55 -5 -26
-15 -26 -15 -21 19 2 17 7 30 11 30 3 0 65 -7 136 -15z m453 -80 c1 -1 -16
-77 -39 -169 -34 -137 -40 -171 -31 -192 7 -13 20 -24 30 -24 15 0 25 29 61
178 24 97 46 180 50 183 3 3 44 -4 90 -15 84 -22 84 -22 59 -38 -22 -14 -31
-39 -63 -169 -32 -129 -36 -157 -27 -182 7 -17 10 -32 8 -34 -4 -5 -283 64
-314 77 -45 19 -45 49 -3 217 36 142 38 159 26 184 l-14 27 82 -21 c45 -11 83
-21 85 -22z m-1914 -64 c-8 -38 96 -317 128 -344 24 -20 24 -20 -23 -40 l-37
-15 -113 73 c-63 41 -115 72 -117 71 -1 -2 14 -45 33 -96 20 -51 34 -98 32
-103 -3 -9 -119 -57 -138 -57 -5 0 -8 10 -7 23 3 35 -111 320 -135 339 -12 9
-20 19 -17 21 3 3 33 16 67 30 l62 25 71 -45 c40 -24 74 -43 76 -41 2 3 -6 28
-17 57 -11 30 -18 58 -17 63 3 8 127 64 150 67 4 1 5 -12 2 -28z m2276 -47
c22 -9 40 -17 40 -19 0 -1 -7 -19 -15 -39 -18 -42 -86 -83 -115 -69 -17 7 -16
12 7 76 14 37 29 67 34 67 5 0 27 -7 49 -16z m-2669 -336 c46 -76 92 -140 102
-144 9 -3 17 -9 17 -13 0 -7 -144 -101 -155 -101 -3 0 -5 10 -5 23 0 33 -154
278 -189 302 -17 11 -30 22 -30 25 0 3 37 28 82 56 l82 50 6 -30 c3 -17 43
-93 90 -168z m2979 171 c63 -11 118 -23 123 -28 4 -4 -18 -41 -50 -82 l-58
-74 -11 61 c-15 87 -19 94 -52 94 -58 0 -59 -18 -3 -161 66 -170 66 -169 -81
-145 -106 17 -245 50 -255 60 -6 6 29 60 77 116 l29 35 1 -71 c0 -66 2 -72 23
-78 41 -11 66 -6 77 15 9 16 3 42 -36 141 -65 167 -69 164 216 117z m-710
-499 c26 -26 25 -46 -5 -75 -28 -29 -47 -31 -68 -10 -12 12 -17 12 -26 1 -39
-47 -62 -187 -38 -236 l15 -30 -71 0 c-55 0 -68 3 -59 12 15 15 17 198 2 198
-5 0 -10 4 -10 8 0 5 25 15 56 22 51 12 57 17 71 52 28 71 92 99 133 58z
m-1000 -45 l0 -55 50 0 c40 0 56 -5 75 -24 78 -78 33 -226 -69 -226 -22 0 -47
4 -55 9 -9 6 -21 5 -31 -1 -9 -6 -28 -8 -41 -5 l-24 6 3 147 c3 97 0 150 -7
157 -18 18 -13 27 17 28 15 0 36 4 47 9 33 14 35 12 35 -45z m-771 34 c53 -19
66 -67 30 -113 -15 -19 -17 -26 -7 -26 29 0 68 -54 68 -94 0 -74 -65 -106
-219 -106 -86 0 -92 1 -80 17 22 25 26 262 6 302 l-15 31 92 0 c51 0 107 -5
125 -11z m335 -118 c17 -18 21 -35 22 -105 1 -46 4 -89 8 -94 9 -14 -30 -25
-60 -18 -28 7 -44 41 -44 93 0 35 0 36 -20 18 -27 -24 -26 -65 0 -72 25 -7 21
-24 -9 -39 -31 -16 -70 -4 -95 29 -16 22 -18 31 -8 52 6 14 26 34 44 45 30 18
31 20 10 20 -14 0 -27 9 -34 25 -10 22 -9 29 9 46 41 42 135 41 177 0z m1098
17 c29 -14 36 -39 39 -138 l3 -95 -28 -3 c-43 -5 -66 22 -66 80 0 55 -12 62
-35 19 -18 -35 -12 -57 18 -65 22 -6 22 -7 3 -21 -46 -35 -126 -7 -126 44 0
34 16 55 55 76 24 12 26 15 10 15 -42 0 -62 54 -30 80 33 27 112 31 157 8z
m601 -19 c12 -16 17 -42 19 -100 1 -43 2 -87 2 -96 1 -13 -8 -19 -31 -21 -41
-4 -63 27 -63 87 0 43 0 44 -20 26 -11 -10 -20 -31 -20 -47 0 -21 5 -28 20
-28 11 0 20 -4 20 -8 0 -35 -88 -44 -120 -12 -37 37 -23 83 35 114 25 12 26
15 10 16 -45 0 -59 44 -25 75 42 38 139 35 173 -6z m-1523 19 c0 -9 3 -9 12 0
7 7 29 12 50 12 65 0 101 -59 61 -102 -32 -36 -88 -15 -77 29 7 27 -10 37 -30
17 -19 -18 -23 -143 -6 -175 10 -18 7 -19 -60 -19 l-71 0 15 22 c23 32 22 170
0 189 -15 12 -12 15 27 25 59 16 79 16 79 2z m639 -3 c27 -13 47 -47 53 -90 3
-18 -3 -20 -69 -23 -76 -3 -86 -11 -56 -44 21 -24 60 -23 75 2 17 26 48 26 48
1 0 -53 -79 -95 -149 -80 -97 21 -125 165 -43 229 30 24 100 27 141 5z m639
-100 c1 -60 8 -115 14 -122 8 -10 -4 -13 -63 -13 -57 0 -70 3 -61 12 15 15 17
184 2 193 -20 13 -9 25 23 25 17 0 39 5 47 10 29 19 35 3 38 -105z m-2068 -5
c0 -6 -33 -10 -79 -10 -43 0 -93 -3 -110 -6 -24 -5 -31 -3 -31 10 0 14 15 16
110 16 67 0 110 -4 110 -10z m2630 0 c0 -6 -33 -10 -79 -10 -43 0 -93 -3 -110
-6 -24 -5 -31 -3 -31 10 0 14 15 16 110 16 67 0 110 -4 110 -10z"/>
<path d="M5380 3465 c19 -19 36 -35 39 -35 3 0 -10 16 -29 35 -19 19 -36 35
-39 35 -3 0 10 -16 29 -35z"/>
<path d="M5500 3347 c0 -2 15 -16 33 -33 l32 -29 -29 33 c-28 30 -36 37 -36
29z"/>
<path d="M6133 2543 c-12 -30 -9 -131 4 -144 32 -32 61 55 42 124 -11 39 -35
49 -46 20z"/>
<path d="M5250 2615 c0 -44 0 -44 27 -34 26 10 43 25 43 41 0 14 -32 38 -51
38 -16 0 -19 -7 -19 -45z"/>
<path d="M5250 2461 c0 -68 1 -71 24 -71 36 0 76 37 76 69 0 34 -25 59 -68 67
l-32 7 0 -72z"/>
<path d="M5575 2560 c-3 -5 -3 -15 0 -20 4 -6 1 -19 -7 -28 -12 -16 -11 -16
12 -1 29 19 40 59 16 59 -8 0 -18 -4 -21 -10z"/>
<path d="M6685 2560 c-4 -6 -2 -17 4 -24 7 -9 7 -16 -2 -26 -8 -9 -4 -9 13 2
14 8 25 24 25 34 0 21 -29 31 -40 14z"/>
<path d="M7275 2561 c-3 -6 -3 -16 0 -21 4 -6 1 -19 -7 -28 -12 -16 -11 -16
12 -1 14 9 25 25 25 34 0 21 -20 31 -30 16z"/>
<path d="M6420 2551 c-16 -31 -12 -41 15 -41 25 0 31 13 19 44 -8 21 -21 20
-34 -3z"/>
</g>
</svg>
